<?xml version="1.0" standalone="no"?>
<!DOCTYPE svg PUBLIC "-//W3C//DTD SVG 20010904//EN"
 "http://www.w3.org/TR/2001/REC-SVG-20010904/DTD/svg10.dtd">
<svg version="1.0" xmlns="http://www.w3.org/2000/svg"
 width="913.000000pt" height="833.000000pt" viewBox="0 0 913.000000 833.000000"
 preserveAspectRatio="xMidYMid meet">

<g transform="translate(0.000000,833.000000) scale(0.100000,-0.100000)"
fill="#E1603B" stroke="none">
<path d="M5505 7677 c-66 -111 -196 -330 -289 -487 -93 -157 -215 -361 -271
-455 -57 -93 -112 -186 -123 -205 -10 -19 -36 -63 -56 -98 -21 -35 -36 -69
-33 -75 4 -11 339 -563 538 -884 51 -84 96 -153 99 -153 3 0 32 45 65 101 130
216 203 329 214 329 5 0 18 -15 29 -32 11 -18 105 -177 209 -353 229 -385 812
-1366 970 -1631 62 -104 113 -195 113 -202 0 -9 -279 -12 -1215 -12 l-1214 0
-37 -62 c-138 -235 -222 -379 -326 -558 -66 -113 -151 -258 -190 -324 -38 -65
-68 -120 -66 -121 5 -4 4928 -13 4928 -9 0 6 -372 635 -570 964 -65 107 -254
425 -420 705 -167 281 -333 560 -370 620 -37 61 -165 277 -285 480 -120 204
-243 413 -275 465 -31 52 -110 185 -175 295 -65 110 -197 333 -293 495 -96
162 -196 331 -222 375 -187 316 -610 1027 -614 1032 0 0 -55 -90 -121 -200z"/>
<path d="M3416 7747 c-33 -56 -79 -133 -101 -172 -23 -38 -75 -126 -115 -195
-41 -69 -114 -192 -163 -275 -49 -82 -148 -251 -220 -375 -71 -124 -241 -412
-377 -640 -136 -228 -328 -550 -425 -715 -98 -165 -262 -442 -365 -615 -103
-173 -267 -450 -365 -615 -97 -165 -221 -374 -275 -465 -54 -91 -185 -311
-290 -490 -106 -179 -248 -418 -316 -533 -68 -114 -124 -209 -124 -212 0 -3
361 -5 803 -5 l802 1 59 102 c60 103 285 481 468 786 54 91 98 169 98 173 0 4
-74 8 -164 8 -102 0 -167 4 -171 10 -4 6 18 50 48 98 30 48 150 249 267 447
455 770 955 1593 983 1620 7 7 8 6 4 -1 -4 -7 0 -14 8 -17 10 -4 12 -1 9 11
-5 14 -3 13 10 -2 19 -23 21 -40 4 -30 -7 5 -8 3 -4 -5 5 -7 11 -10 14 -7 8 9
15 -3 349 -554 71 -118 221 -366 333 -550 111 -184 248 -410 304 -502 l101
-168 629 0 628 0 -18 27 c-20 32 -380 634 -638 1068 -99 165 -198 332 -221
370 -63 103 -469 785 -725 1215 -413 694 -781 1310 -783 1310 -1 0 -29 -46
-61 -103z"/>
<path d="M3628 4774 c-14 -22 -44 -73 -68 -114 -42 -74 -231 -393 -500 -845
-75 -126 -148 -250 -162 -275 -14 -25 -56 -97 -93 -160 -37 -63 -90 -152 -117
-198 -26 -46 -45 -88 -42 -94 4 -6 3 -8 -3 -5 -5 3 -32 -33 -60 -81 -51 -86
-392 -666 -501 -852 -30 -52 -81 -138 -112 -190 -32 -52 -115 -194 -185 -315
-122 -211 -189 -323 -433 -736 -60 -102 -115 -195 -121 -207 l-12 -22 3326 0
c2323 0 3325 3 3325 11 0 8 -195 345 -249 429 -9 14 -34 55 -56 93 -49 82
-448 744 -509 842 l-43 70 -696 3 c-383 1 -697 0 -697 -2 0 -3 47 -85 105
-182 58 -97 104 -182 102 -188 -4 -13 -2667 -10 -2681 4 -6 7 183 334 449 775
23 39 102 171 175 295 73 124 142 241 155 260 12 19 104 171 203 337 l180 302
-95 158 c-52 87 -103 172 -113 188 -90 154 -434 722 -440 729 -5 4 -19 -9 -32
-30z"/>
<path d="M4833 3843 c130 -2 344 -2 475 0 130 1 23 2 -238 2 -261 0 -368 -1
-237 -2z"/>
<path d="M992 2423 c164 -2 432 -2 595 0 164 1 30 2 -297 2 -327 0 -461 -1
-298 -2z"/>
<path d="M5798 1753 c7 -3 16 -2 19 1 4 3 -2 6 -13 5 -11 0 -14 -3 -6 -6z"/>
</g>
</svg>
