<?xml version="1.0" encoding="utf-8" ?>
<svg baseProfile="tiny" height="768px" version="1.2" width="768px" xmlns="http://www.w3.org/2000/svg" xmlns:ev="http://www.w3.org/2001/xml-events" xmlns:xlink="http://www.w3.org/1999/xlink"><defs /><path d="M 409,384 L 409,385 L 408,386 L 408,387 L 406,389 L 406,390 L 405,391 L 405,392 L 403,394 L 403,395 L 401,397 L 401,398 L 399,400 L 399,401 L 398,402 L 398,403 L 396,405 L 396,406 L 394,408 L 394,409 L 393,410 L 393,411 L 391,413 L 391,414 L 389,416 L 389,417 L 388,418 L 388,419 L 386,421 L 386,422 L 384,424 L 384,425 L 382,427 L 382,428 L 381,429 L 381,430 L 379,432 L 379,433 L 377,435 L 377,436 L 376,437 L 376,438 L 374,440 L 374,441 L 372,443 L 372,444 L 370,446 L 370,447 L 369,448 L 369,449 L 367,451 L 367,452 L 365,454 L 365,455 L 363,457 L 363,458 L 361,460 L 361,461 L 360,462 L 360,463 L 358,465 L 358,466 L 356,468 L 356,469 L 354,471 L 354,472 L 353,473 L 353,474 L 351,476 L 351,477 L 349,479 L 349,480 L 347,482 L 347,483 L 345,485 L 345,486 L 344,487 L 344,488 L 342,490 L 342,491 L 340,493 L 340,494 L 338,496 L 338,497 L 336,499 L 336,500 L 335,501 L 335,502 L 333,504 L 333,505 L 331,507 L 331,508 L 329,510 L 329,511 L 327,513 L 327,514 L 325,516 L 325,517 L 324,518 L 324,519 L 322,521 L 322,522 L 320,524 L 320,525 L 318,527 L 318,528 L 316,530 L 316,531 L 315,532 L 315,533 L 313,535 L 313,536 L 311,538 L 311,539 L 309,541 L 309,542 L 307,544 L 307,545 L 305,547 L 305,548 L 304,549 L 304,550 L 302,552 L 302,553 L 300,555 L 300,556 L 298,558 L 298,559 L 296,561 L 296,562 L 295,563 L 295,564 L 293,566 L 293,567 L 291,569 L 291,570 L 289,572 L 289,573 L 287,575 L 287,576 L 285,578 L 285,579 L 284,580 L 284,581 L 282,583 L 282,584 L 280,586 L 280,587 L 278,589 L 278,590 L 276,592 L 276,593 L 275,594 L 275,595 L 273,597 L 273,598 L 271,600 L 271,601 L 269,603 L 269,604 L 267,606 L 267,607 L 265,609 L 265,610 L 264,611 L 264,612 L 262,614 L 262,615 L 260,617 L 260,618 L 258,620 L 258,621 L 256,623 L 256,624 L 254,626 L 254,627 L 253,628 L 253,629 L 251,631 L 251,632 L 249,634 L 249,635 L 247,637 L 247,638 L 245,640 L 245,641 L 244,642 L 244,643 L 242,645 L 242,646 L 240,648 L 240,649 L 238,651 L 238,652 L 236,654 L 236,655 L 235,656 L 235,657 L 233,659 L 233,660 L 231,662 L 231,663 L 229,665 L 229,666 L 227,668 L 227,669 L 225,671 L 225,672 L 224,673 L 224,674 L 222,676 L 222,677 L 220,679 L 220,680 L 218,682 L 218,683 L 217,684 L 217,685 L 214,688 L 214,689 L 213,690 L 213,691 L 211,693 L 211,694 L 209,696 L 209,697 L 207,699 L 207,700 L 206,701 L 206,702 L 204,704 L 204,705 L 202,707 L 202,708 L 200,710 L 200,711 L 198,713 L 198,714 L 196,716 L 196,717 L 194,719 L 194,720 L 193,721 L 193,722 L 191,724 L 191,725 L 189,727 L 189,728 L 187,730 L 187,731 L 185,733 L 185,734 L 184,735 L 184,736 L 182,738 L 182,739 L 180,741 L 180,742 L 178,744 L 178,745 L 176,747 L 176,748 L 174,750 L 174,751 L 173,752 L 173,753 L 171,755 L 171,756 L 169,758 L 169,759 L 167,761 L 167,762 L 165,764 L 165,765 L 163,767 L 163,768 L 161,770 L 161,771 L 160,772 L 160,773 L 158,775 L 158,776 L 156,778 L 156,779 L 154,781 L 154,782 L 152,784 L 152,785 L 151,786 L 151,787 L 149,789 L 149,790 L 147,792 L 147,793 L 145,795 L 145,796 L 143,798 L 143,799 L 142,800 L 142,801 L 140,803 L 140,804 L 138,806 L 138,807 L 136,809 L 136,810 L 134,812 L 134,813 L 132,815 L 132,816 L 131,817 L 131,818 L 129,820 L 129,821 L 127,823 L 127,824 L 125,826 L 885,826 L 883,824 L 883,823 L 881,821 L 881,820 L 879,818 L 879,817 L 877,815 L 877,814 L 875,812 L 875,811 L 873,809 L 873,808 L 871,806 L 871,805 L 870,804 L 870,803 L 868,801 L 868,800 L 866,798 L 866,797 L 864,795 L 864,794 L 862,792 L 862,791 L 860,789 L 860,788 L 858,786 L 858,785 L 856,783 L 856,782 L 854,780 L 854,779 L 852,777 L 852,776 L 850,774 L 850,773 L 848,771 L 848,770 L 847,769 L 847,768 L 844,765 L 844,764 L 842,762 L 842,761 L 841,760 L 841,759 L 838,756 L 838,755 L 837,754 L 837,753 L 835,751 L 835,750 L 833,748 L 833,747 L 831,745 L 831,744 L 829,742 L 829,741 L 827,739 L 827,738 L 825,736 L 825,735 L 823,733 L 823,732 L 821,730 L 821,729 L 819,727 L 819,726 L 817,724 L 817,723 L 815,721 L 815,720 L 814,719 L 814,718 L 812,716 L 812,715 L 810,713 L 810,712 L 808,710 L 808,709 L 806,707 L 806,706 L 804,704 L 804,703 L 802,701 L 802,700 L 800,698 L 800,697 L 798,695 L 798,694 L 796,692 L 796,691 L 794,689 L 794,688 L 792,686 L 792,685 L 790,683 L 790,682 L 788,680 L 788,679 L 786,677 L 786,676 L 784,674 L 784,673 L 782,671 L 782,670 L 780,668 L 612,668 L 612,670 L 614,672 L 614,673 L 615,674 L 615,675 L 617,677 L 617,678 L 618,679 L 618,680 L 620,682 L 620,683 L 621,684 L 621,685 L 623,687 L 623,688 L 624,689 L 624,690 L 626,692 L 626,693 L 627,694 L 627,695 L 628,696 L 628,697 L 630,699 L 629,700 L 360,700 L 359,699 L 359,698 L 361,696 L 361,695 L 363,693 L 363,692 L 365,690 L 365,689 L 367,687 L 367,686 L 369,684 L 369,683 L 371,681 L 371,680 L 373,678 L 373,677 L 375,675 L 375,674 L 377,672 L 377,671 L 378,670 L 378,669 L 381,666 L 381,665 L 383,663 L 383,662 L 384,661 L 384,660 L 386,658 L 386,657 L 388,655 L 388,654 L 390,652 L 390,651 L 392,649 L 392,648 L 394,646 L 394,645 L 396,643 L 396,642 L 398,640 L 398,639 L 400,637 L 400,636 L 402,634 L 402,633 L 404,631 L 404,630 L 406,628 L 406,627 L 408,625 L 408,624 L 409,623 L 409,622 L 411,620 L 411,619 L 413,617 L 413,616 L 415,614 L 415,613 L 417,611 L 417,610 L 419,608 L 419,607 L 421,605 L 421,604 L 423,602 L 423,601 L 425,599 L 425,598 L 427,596 L 427,595 L 429,593 L 429,592 L 431,590 L 431,589 L 433,587 L 433,586 L 434,585 L 434,584 L 436,582 L 436,581 L 438,579 L 438,578 L 440,576 L 440,575 L 442,573 L 442,572 L 444,570 L 444,569 L 446,567 L 446,566 L 448,564 L 448,563 L 450,561 L 450,560 L 452,558 L 452,557 L 454,555 L 454,554 L 455,553 L 455,552 L 457,550 L 457,549 L 459,547 L 459,546 L 461,544 L 461,543 L 463,541 L 463,540 L 465,538 L 465,537 L 467,535 L 467,534 L 469,532 L 469,531 L 471,529 L 471,528 L 473,526 L 473,525 L 475,523 L 475,522 L 477,520 L 477,519 L 479,517 L 479,516 L 480,515 L 480,514 L 483,511 L 483,510 L 484,509 L 484,508 L 486,506 L 486,505 L 487,504 L 487,503 L 485,501 L 485,500 L 483,498 L 483,497 L 481,495 L 481,494 L 479,492 L 479,491 L 478,490 L 478,489 L 476,487 L 476,486 L 474,484 L 474,483 L 472,481 L 472,480 L 470,478 L 470,477 L 468,475 L 468,474 L 466,472 L 466,471 L 464,469 L 464,468 L 462,466 L 462,465 L 461,464 L 461,463 L 459,461 L 459,460 L 457,458 L 457,457 L 455,455 L 455,454 L 453,452 L 453,451 L 452,450 L 452,449 L 450,447 L 450,446 L 448,444 L 448,443 L 446,441 L 446,440 L 444,438 L 444,437 L 442,435 L 442,434 L 440,432 L 440,431 L 438,429 L 438,428 L 436,426 L 436,425 L 435,424 L 435,423 L 433,421 L 433,420 L 431,418 L 431,417 L 429,415 L 429,414 L 427,412 L 427,411 L 426,410 L 426,409 L 424,407 L 424,406 L 422,404 L 422,403 L 420,401 L 420,400 L 418,398 L 418,397 L 417,396 L 417,395 L 415,393 L 415,392 L 413,390 L 413,389 L 411,387 L 411,386 L 410,385 L 410,384 Z" fill="orangered" stroke="none" /><path d="M 627,108 L 626,109 L 626,110 L 624,112 L 624,113 L 623,114 L 623,115 L 621,117 L 621,118 L 619,120 L 619,121 L 617,123 L 617,124 L 615,126 L 615,127 L 614,128 L 614,129 L 612,131 L 612,132 L 610,134 L 610,135 L 608,137 L 608,138 L 606,140 L 606,141 L 604,143 L 604,144 L 602,146 L 602,147 L 601,148 L 601,149 L 599,151 L 599,152 L 597,154 L 597,155 L 595,157 L 595,158 L 593,160 L 593,161 L 592,162 L 592,163 L 590,165 L 590,166 L 588,168 L 588,169 L 586,171 L 586,172 L 584,174 L 584,175 L 583,176 L 583,177 L 581,179 L 581,180 L 579,182 L 579,183 L 577,185 L 577,186 L 575,188 L 575,189 L 573,191 L 573,192 L 571,194 L 571,195 L 570,196 L 570,197 L 568,199 L 568,200 L 566,202 L 566,203 L 564,205 L 564,206 L 562,208 L 562,209 L 561,210 L 561,211 L 559,213 L 559,214 L 557,216 L 557,217 L 555,219 L 555,220 L 553,222 L 553,223 L 551,225 L 551,226 L 550,227 L 550,228 L 548,230 L 548,231 L 546,233 L 546,234 L 544,236 L 544,237 L 543,238 L 543,239 L 541,241 L 541,242 L 539,244 L 539,245 L 538,246 L 540,248 L 540,249 L 542,251 L 542,252 L 544,254 L 544,255 L 546,257 L 546,258 L 548,260 L 548,261 L 550,263 L 550,264 L 552,266 L 552,267 L 554,269 L 554,270 L 555,271 L 555,272 L 557,274 L 557,275 L 559,277 L 559,278 L 561,280 L 561,281 L 563,283 L 563,284 L 565,286 L 565,287 L 567,289 L 567,290 L 569,292 L 569,293 L 570,294 L 570,295 L 572,297 L 572,298 L 574,300 L 574,301 L 576,303 L 576,304 L 578,306 L 578,307 L 580,309 L 580,310 L 581,311 L 581,312 L 583,314 L 583,315 L 585,317 L 585,318 L 587,320 L 587,321 L 589,323 L 589,324 L 591,326 L 591,327 L 593,329 L 593,330 L 595,332 L 595,333 L 596,334 L 596,335 L 598,337 L 598,338 L 600,340 L 600,341 L 602,343 L 602,344 L 604,346 L 604,347 L 605,348 L 606,348 L 607,347 L 607,346 L 609,344 L 609,343 L 611,341 L 611,340 L 613,338 L 613,337 L 615,335 L 615,334 L 617,332 L 617,331 L 619,329 L 619,328 L 620,327 L 620,326 L 623,323 L 623,322 L 625,320 L 625,319 L 626,318 L 626,317 L 628,315 L 628,314 L 629,313 L 630,314 L 630,315 L 632,317 L 632,318 L 634,320 L 634,321 L 636,323 L 636,324 L 637,325 L 637,326 L 639,328 L 639,329 L 641,331 L 641,332 L 642,333 L 642,334 L 644,336 L 644,337 L 646,339 L 646,340 L 648,342 L 648,343 L 650,345 L 650,346 L 651,347 L 651,348 L 653,350 L 653,351 L 655,353 L 655,354 L 657,356 L 657,357 L 659,359 L 659,360 L 661,362 L 661,363 L 663,365 L 663,366 L 664,367 L 664,368 L 666,370 L 666,371 L 668,373 L 668,374 L 670,376 L 670,377 L 672,379 L 672,380 L 674,382 L 674,383 L 676,385 L 676,386 L 677,387 L 677,388 L 679,390 L 679,391 L 681,393 L 681,394 L 683,396 L 683,397 L 685,399 L 685,400 L 687,402 L 687,403 L 688,404 L 688,405 L 690,407 L 690,408 L 692,410 L 692,411 L 694,413 L 694,414 L 696,416 L 696,417 L 698,419 L 698,420 L 700,422 L 700,423 L 701,424 L 701,425 L 703,427 L 703,428 L 705,430 L 705,431 L 707,433 L 707,434 L 709,436 L 709,437 L 711,439 L 711,440 L 713,442 L 713,443 L 715,445 L 715,446 L 717,448 L 717,449 L 718,450 L 718,451 L 720,453 L 720,454 L 722,456 L 722,457 L 724,459 L 724,460 L 726,462 L 726,463 L 728,465 L 728,466 L 730,468 L 730,469 L 732,471 L 732,472 L 734,474 L 734,475 L 735,476 L 735,477 L 738,480 L 738,481 L 739,482 L 739,483 L 741,485 L 741,486 L 743,488 L 743,489 L 745,491 L 745,492 L 747,494 L 747,495 L 749,497 L 749,498 L 751,500 L 751,501 L 753,503 L 753,504 L 755,506 L 755,507 L 757,509 L 757,510 L 758,511 L 758,512 L 761,515 L 761,516 L 762,517 L 761,518 L 514,518 L 512,520 L 512,521 L 510,523 L 510,524 L 509,525 L 509,526 L 507,528 L 507,529 L 505,531 L 505,532 L 503,534 L 503,535 L 502,536 L 502,537 L 500,539 L 500,540 L 498,542 L 498,543 L 496,545 L 496,546 L 495,547 L 495,548 L 493,550 L 493,551 L 491,553 L 491,554 L 489,556 L 489,557 L 488,558 L 488,559 L 486,561 L 486,562 L 484,564 L 484,565 L 482,567 L 482,568 L 480,570 L 480,571 L 479,572 L 479,573 L 477,575 L 477,576 L 475,578 L 475,579 L 473,581 L 473,582 L 471,584 L 471,585 L 470,586 L 470,587 L 468,589 L 468,590 L 466,592 L 466,593 L 464,595 L 464,596 L 463,597 L 463,598 L 461,600 L 461,601 L 459,603 L 459,604 L 457,606 L 457,607 L 456,608 L 456,609 L 454,611 L 454,612 L 452,614 L 452,615 L 450,617 L 450,618 L 449,619 L 449,620 L 447,622 L 447,623 L 445,625 L 445,626 L 443,628 L 443,629 L 442,630 L 442,631 L 440,633 L 440,634 L 438,636 L 438,637 L 437,638 L 437,639 L 435,641 L 435,642 L 975,642 L 973,640 L 973,639 L 971,637 L 971,636 L 969,634 L 969,633 L 967,631 L 967,630 L 965,628 L 965,627 L 964,626 L 964,625 L 962,623 L 962,622 L 960,620 L 960,619 L 958,617 L 958,616 L 956,614 L 956,613 L 954,611 L 954,610 L 952,608 L 952,607 L 951,606 L 951,605 L 949,603 L 949,602 L 947,600 L 947,599 L 945,597 L 945,596 L 943,594 L 943,593 L 941,591 L 941,590 L 939,588 L 939,587 L 937,585 L 937,584 L 935,582 L 935,581 L 934,580 L 934,579 L 932,577 L 932,576 L 930,574 L 930,573 L 928,571 L 928,570 L 926,568 L 926,567 L 924,565 L 924,564 L 922,562 L 922,561 L 920,559 L 920,558 L 919,557 L 919,556 L 917,554 L 917,553 L 915,551 L 915,550 L 913,548 L 913,547 L 911,545 L 911,544 L 909,542 L 909,541 L 908,540 L 908,539 L 906,537 L 906,536 L 904,534 L 904,533 L 902,531 L 902,530 L 900,528 L 900,527 L 898,525 L 898,524 L 896,522 L 896,521 L 894,519 L 894,518 L 892,516 L 892,515 L 891,514 L 891,513 L 889,511 L 889,510 L 887,508 L 887,507 L 885,505 L 885,504 L 883,502 L 883,501 L 881,499 L 881,498 L 880,497 L 880,496 L 878,494 L 878,493 L 876,491 L 876,490 L 874,488 L 874,487 L 872,485 L 872,484 L 870,482 L 870,481 L 868,479 L 868,478 L 867,477 L 867,476 L 865,474 L 865,473 L 863,471 L 863,470 L 861,468 L 861,467 L 859,465 L 859,464 L 858,463 L 858,462 L 856,460 L 856,459 L 854,457 L 854,456 L 852,454 L 852,453 L 850,451 L 850,450 L 848,448 L 848,447 L 846,445 L 846,444 L 844,442 L 844,441 L 843,440 L 843,439 L 841,437 L 841,436 L 839,434 L 839,433 L 837,431 L 837,430 L 835,428 L 835,427 L 833,425 L 833,424 L 831,422 L 831,421 L 830,420 L 830,419 L 828,417 L 828,416 L 826,414 L 826,413 L 824,411 L 824,410 L 822,408 L 822,407 L 821,406 L 821,405 L 819,403 L 819,402 L 817,400 L 817,399 L 815,397 L 815,396 L 813,394 L 813,393 L 811,391 L 811,390 L 810,389 L 810,388 L 808,386 L 808,385 L 806,383 L 806,382 L 804,380 L 804,379 L 802,377 L 802,376 L 800,374 L 800,373 L 799,372 L 799,371 L 797,369 L 797,368 L 795,366 L 795,365 L 793,363 L 793,362 L 792,361 L 792,360 L 789,357 L 789,356 L 788,355 L 788,354 L 786,352 L 786,351 L 784,349 L 784,348 L 782,346 L 782,345 L 780,343 L 780,342 L 779,341 L 779,340 L 777,338 L 777,337 L 775,335 L 775,334 L 773,332 L 773,331 L 771,329 L 771,328 L 769,326 L 769,325 L 768,324 L 768,323 L 766,321 L 766,320 L 764,318 L 764,317 L 762,315 L 762,314 L 760,312 L 760,311 L 758,309 L 758,308 L 757,307 L 757,306 L 755,304 L 755,303 L 753,301 L 753,300 L 751,298 L 751,297 L 749,295 L 749,294 L 747,292 L 747,291 L 745,289 L 745,288 L 743,286 L 743,285 L 741,283 L 741,282 L 740,281 L 740,280 L 738,278 L 738,277 L 736,275 L 736,274 L 734,272 L 734,271 L 732,269 L 732,268 L 730,266 L 730,265 L 728,263 L 728,262 L 727,261 L 727,260 L 725,258 L 725,257 L 723,255 L 723,254 L 721,252 L 721,251 L 719,249 L 719,248 L 717,246 L 717,245 L 716,244 L 716,243 L 714,241 L 714,240 L 712,238 L 712,237 L 710,235 L 710,234 L 708,232 L 708,231 L 707,230 L 707,229 L 705,227 L 705,226 L 703,224 L 703,223 L 701,221 L 701,220 L 699,218 L 699,217 L 697,215 L 697,214 L 695,212 L 695,211 L 694,210 L 694,209 L 692,207 L 692,206 L 690,204 L 690,203 L 688,201 L 688,200 L 686,198 L 686,197 L 684,195 L 684,194 L 682,192 L 682,191 L 681,190 L 681,189 L 679,187 L 679,186 L 677,184 L 677,183 L 675,181 L 675,180 L 673,178 L 673,177 L 671,175 L 671,174 L 669,172 L 669,171 L 668,170 L 668,169 L 666,167 L 666,166 L 664,164 L 664,163 L 662,161 L 662,160 L 660,158 L 660,157 L 658,155 L 658,154 L 656,152 L 656,151 L 654,149 L 654,148 L 653,147 L 653,146 L 651,144 L 651,143 L 649,141 L 649,140 L 647,138 L 647,137 L 645,135 L 645,134 L 643,132 L 643,131 L 641,129 L 641,128 L 639,126 L 639,125 L 637,123 L 637,122 L 636,121 L 636,120 L 634,118 L 634,117 L 632,115 L 632,114 L 630,112 L 630,111 L 628,109 L 628,108 Z" fill="orangered" stroke="none" /><path d="M 409,102 L 409,103 L 407,105 L 407,106 L 405,108 L 405,109 L 403,111 L 403,112 L 401,114 L 401,115 L 399,117 L 399,118 L 397,120 L 397,121 L 395,123 L 395,124 L 393,126 L 393,127 L 391,129 L 391,130 L 390,131 L 390,132 L 388,134 L 388,135 L 386,137 L 386,138 L 384,140 L 384,141 L 382,143 L 382,144 L 380,146 L 380,147 L 379,148 L 379,149 L 377,151 L 377,152 L 375,154 L 375,155 L 373,157 L 373,158 L 371,160 L 371,161 L 369,163 L 369,164 L 368,165 L 368,166 L 366,168 L 366,169 L 364,171 L 364,172 L 362,174 L 362,175 L 360,177 L 360,178 L 359,179 L 359,180 L 357,182 L 357,183 L 355,185 L 355,186 L 353,188 L 353,189 L 351,191 L 351,192 L 350,193 L 350,194 L 348,196 L 348,197 L 346,199 L 346,200 L 344,202 L 344,203 L 342,205 L 342,206 L 340,208 L 340,209 L 338,211 L 338,212 L 337,213 L 337,214 L 335,216 L 335,217 L 333,219 L 333,220 L 331,222 L 331,223 L 329,225 L 329,226 L 328,227 L 328,228 L 326,230 L 326,231 L 324,233 L 324,234 L 322,236 L 322,237 L 320,239 L 320,240 L 319,241 L 319,242 L 317,244 L 317,245 L 315,247 L 315,248 L 313,250 L 313,251 L 311,253 L 311,254 L 309,256 L 309,257 L 308,258 L 308,259 L 306,261 L 306,262 L 304,264 L 304,265 L 302,267 L 302,268 L 300,270 L 300,271 L 298,273 L 298,274 L 297,275 L 297,276 L 295,278 L 295,279 L 293,281 L 293,282 L 291,284 L 291,285 L 290,286 L 290,287 L 288,289 L 288,290 L 286,292 L 286,293 L 284,295 L 284,296 L 282,298 L 282,299 L 281,300 L 281,301 L 279,303 L 279,304 L 277,306 L 277,307 L 275,309 L 275,310 L 273,312 L 273,313 L 272,314 L 272,315 L 270,317 L 270,318 L 268,320 L 268,321 L 266,323 L 266,324 L 264,326 L 264,327 L 263,328 L 263,329 L 261,331 L 261,332 L 259,334 L 259,335 L 257,337 L 257,338 L 255,340 L 255,341 L 253,343 L 253,344 L 252,345 L 252,346 L 250,348 L 250,349 L 248,351 L 248,352 L 246,354 L 246,355 L 244,357 L 244,358 L 242,360 L 242,361 L 240,363 L 240,364 L 239,365 L 239,366 L 237,368 L 237,369 L 235,371 L 235,372 L 233,374 L 233,375 L 231,377 L 231,378 L 229,380 L 229,381 L 228,382 L 228,383 L 226,385 L 226,386 L 224,388 L 224,389 L 222,391 L 222,392 L 220,394 L 220,395 L 218,397 L 218,398 L 216,400 L 216,401 L 215,402 L 215,403 L 213,405 L 213,406 L 211,408 L 211,409 L 209,411 L 209,412 L 207,414 L 207,415 L 205,417 L 205,418 L 204,419 L 204,420 L 202,422 L 202,423 L 200,425 L 200,426 L 198,428 L 198,429 L 196,431 L 196,432 L 195,433 L 195,434 L 193,436 L 193,437 L 191,439 L 191,440 L 189,442 L 189,443 L 187,445 L 187,446 L 186,447 L 186,448 L 184,450 L 184,451 L 182,453 L 182,454 L 180,456 L 180,457 L 179,458 L 179,459 L 177,461 L 177,462 L 175,464 L 175,465 L 173,467 L 173,468 L 171,470 L 171,471 L 169,473 L 169,474 L 168,475 L 168,476 L 166,478 L 166,479 L 164,481 L 164,482 L 162,484 L 162,485 L 161,486 L 161,487 L 159,489 L 159,490 L 157,492 L 157,493 L 155,495 L 155,496 L 154,497 L 154,498 L 152,500 L 152,501 L 150,503 L 150,504 L 148,506 L 148,507 L 146,509 L 146,510 L 144,512 L 144,513 L 143,514 L 143,515 L 141,517 L 141,518 L 139,520 L 139,521 L 137,523 L 137,524 L 135,526 L 135,527 L 134,528 L 134,529 L 132,531 L 132,532 L 130,534 L 130,535 L 128,537 L 128,538 L 126,540 L 126,541 L 125,542 L 125,543 L 123,545 L 123,546 L 121,548 L 121,549 L 119,551 L 119,552 L 118,553 L 118,554 L 116,556 L 116,557 L 114,559 L 114,560 L 112,562 L 112,563 L 110,565 L 110,566 L 109,567 L 109,568 L 107,570 L 107,571 L 105,573 L 105,574 L 103,576 L 103,577 L 101,579 L 101,580 L 100,581 L 100,582 L 98,584 L 98,585 L 96,587 L 96,588 L 94,590 L 94,591 L 92,593 L 92,594 L 91,595 L 91,596 L 89,598 L 89,599 L 87,601 L 87,602 L 85,604 L 85,605 L 83,607 L 83,608 L 82,609 L 82,610 L 80,612 L 80,613 L 78,615 L 78,616 L 76,618 L 76,619 L 75,620 L 75,621 L 73,623 L 73,624 L 71,626 L 71,627 L 69,629 L 69,630 L 67,632 L 67,633 L 65,635 L 229,635 L 229,634 L 231,632 L 231,631 L 233,629 L 233,628 L 235,626 L 235,625 L 237,623 L 237,622 L 239,620 L 239,619 L 241,617 L 241,616 L 243,614 L 243,613 L 245,611 L 245,610 L 247,608 L 247,607 L 249,605 L 249,604 L 250,603 L 250,602 L 252,600 L 252,599 L 254,597 L 254,596 L 256,594 L 256,593 L 258,591 L 258,590 L 260,588 L 260,587 L 262,585 L 262,584 L 264,582 L 264,581 L 266,579 L 266,578 L 268,576 L 268,575 L 270,573 L 270,572 L 272,570 L 272,569 L 274,567 L 274,566 L 275,565 L 275,564 L 277,562 L 277,561 L 279,559 L 279,558 L 281,556 L 281,555 L 283,553 L 283,552 L 285,550 L 285,549 L 287,547 L 287,546 L 289,544 L 289,543 L 291,541 L 291,540 L 293,538 L 293,537 L 295,535 L 295,534 L 297,532 L 297,531 L 299,529 L 299,528 L 301,526 L 301,525 L 303,523 L 303,522 L 304,521 L 299,521 L 298,520 L 284,520 L 283,519 L 283,518 L 285,516 L 285,515 L 286,514 L 286,513 L 288,511 L 288,510 L 290,508 L 290,507 L 292,505 L 292,504 L 294,502 L 294,501 L 296,499 L 296,498 L 298,496 L 298,495 L 300,493 L 300,492 L 302,490 L 302,489 L 304,487 L 304,486 L 305,485 L 305,484 L 307,482 L 307,481 L 309,479 L 309,478 L 311,476 L 311,475 L 313,473 L 313,472 L 314,471 L 314,470 L 316,468 L 316,467 L 318,465 L 318,464 L 320,462 L 320,461 L 322,459 L 322,458 L 324,456 L 324,455 L 326,453 L 326,452 L 327,451 L 327,450 L 329,448 L 329,447 L 331,445 L 331,444 L 333,442 L 333,441 L 335,439 L 335,438 L 337,436 L 337,435 L 339,433 L 339,432 L 340,431 L 340,430 L 342,428 L 342,427 L 344,425 L 344,424 L 346,422 L 346,421 L 348,419 L 348,418 L 350,416 L 350,415 L 352,413 L 352,412 L 353,411 L 353,410 L 355,408 L 355,407 L 357,405 L 357,404 L 359,402 L 359,401 L 361,399 L 361,398 L 363,396 L 363,395 L 365,393 L 365,392 L 367,390 L 367,389 L 368,388 L 368,387 L 370,385 L 370,384 L 372,382 L 372,381 L 374,379 L 374,378 L 376,376 L 376,375 L 378,373 L 378,372 L 380,370 L 380,369 L 382,367 L 382,366 L 384,364 L 384,363 L 385,362 L 385,361 L 387,359 L 387,358 L 389,356 L 389,355 L 391,353 L 391,352 L 393,350 L 393,349 L 395,347 L 395,346 L 396,345 L 396,344 L 398,342 L 398,341 L 400,339 L 400,338 L 402,336 L 402,335 L 404,333 L 404,332 L 406,330 L 406,329 L 408,327 L 408,326 L 409,325 L 409,324 L 410,323 L 412,325 L 412,326 L 414,328 L 414,329 L 416,331 L 416,332 L 417,333 L 417,334 L 419,336 L 419,337 L 421,339 L 421,340 L 423,342 L 423,343 L 425,345 L 425,346 L 427,348 L 427,349 L 429,351 L 429,352 L 430,353 L 430,354 L 432,356 L 432,357 L 434,359 L 434,360 L 436,362 L 436,363 L 438,365 L 438,366 L 440,368 L 440,369 L 442,371 L 442,372 L 444,374 L 444,375 L 445,376 L 445,377 L 447,379 L 447,380 L 449,382 L 449,383 L 451,385 L 451,386 L 453,388 L 453,389 L 455,391 L 455,392 L 457,394 L 457,395 L 458,396 L 458,397 L 460,399 L 460,400 L 462,402 L 462,403 L 464,405 L 464,406 L 466,408 L 466,409 L 467,410 L 467,411 L 469,413 L 469,414 L 471,416 L 471,417 L 473,419 L 473,420 L 475,422 L 475,423 L 476,424 L 476,425 L 478,427 L 478,428 L 480,430 L 480,431 L 482,433 L 482,434 L 484,436 L 484,437 L 486,439 L 486,440 L 488,442 L 488,443 L 490,445 L 490,446 L 491,447 L 491,448 L 493,450 L 493,451 L 495,453 L 495,454 L 497,456 L 497,457 L 499,459 L 499,460 L 501,462 L 501,463 L 503,465 L 503,466 L 505,468 L 505,469 L 506,470 L 506,471 L 508,473 L 508,474 L 510,476 L 510,477 L 512,479 L 512,480 L 514,482 L 514,483 L 516,485 L 516,486 L 659,486 L 659,485 L 658,484 L 658,483 L 656,481 L 656,480 L 654,478 L 654,477 L 652,475 L 652,474 L 650,472 L 650,471 L 648,469 L 648,468 L 646,466 L 646,465 L 644,463 L 644,462 L 643,461 L 643,460 L 641,458 L 641,457 L 639,455 L 639,454 L 637,452 L 637,451 L 635,449 L 635,448 L 634,447 L 634,446 L 632,444 L 632,443 L 630,441 L 630,440 L 628,438 L 628,437 L 626,435 L 626,434 L 625,433 L 625,432 L 623,430 L 623,429 L 621,427 L 621,426 L 619,424 L 619,423 L 617,421 L 617,420 L 615,418 L 615,417 L 614,416 L 614,415 L 612,413 L 612,412 L 610,410 L 610,409 L 608,407 L 608,406 L 606,404 L 606,403 L 604,401 L 604,400 L 602,398 L 602,397 L 600,395 L 600,394 L 598,392 L 598,391 L 597,390 L 597,389 L 594,386 L 594,385 L 593,384 L 593,383 L 591,381 L 591,380 L 589,378 L 589,377 L 587,375 L 587,374 L 585,372 L 585,371 L 583,369 L 583,368 L 581,366 L 581,365 L 579,363 L 579,362 L 577,360 L 577,359 L 575,357 L 575,356 L 573,354 L 573,353 L 572,352 L 572,351 L 570,349 L 570,348 L 568,346 L 568,345 L 566,343 L 566,342 L 564,340 L 564,339 L 562,337 L 562,336 L 561,335 L 561,334 L 559,332 L 559,331 L 557,329 L 557,328 L 555,326 L 555,325 L 553,323 L 553,322 L 551,320 L 551,319 L 550,318 L 550,317 L 548,315 L 548,314 L 546,312 L 546,311 L 544,309 L 544,308 L 542,306 L 542,305 L 540,303 L 540,302 L 538,300 L 538,299 L 537,298 L 537,297 L 535,295 L 535,294 L 533,292 L 533,291 L 531,289 L 531,288 L 529,286 L 529,285 L 527,283 L 527,282 L 526,281 L 526,280 L 524,278 L 524,277 L 522,275 L 522,274 L 520,272 L 520,271 L 518,269 L 518,268 L 516,266 L 516,265 L 514,263 L 514,262 L 512,260 L 512,259 L 510,257 L 510,256 L 509,255 L 509,254 L 507,252 L 507,251 L 505,249 L 505,248 L 503,246 L 503,245 L 501,243 L 501,242 L 499,240 L 499,239 L 498,238 L 498,237 L 496,235 L 496,234 L 494,232 L 494,231 L 492,229 L 492,228 L 490,226 L 490,225 L 488,223 L 488,222 L 486,220 L 486,219 L 485,218 L 485,217 L 483,215 L 483,214 L 481,212 L 481,211 L 479,209 L 479,208 L 477,206 L 477,205 L 476,204 L 476,203 L 474,201 L 474,200 L 472,198 L 472,197 L 470,195 L 470,194 L 468,192 L 468,191 L 466,189 L 466,188 L 464,186 L 464,185 L 463,184 L 463,183 L 461,181 L 461,180 L 459,178 L 459,177 L 457,175 L 457,174 L 455,172 L 455,171 L 454,170 L 454,169 L 452,167 L 452,166 L 450,164 L 450,163 L 448,161 L 448,160 L 446,158 L 446,157 L 444,155 L 444,154 L 442,152 L 442,151 L 441,150 L 441,149 L 439,147 L 439,146 L 437,144 L 437,143 L 435,141 L 435,140 L 433,138 L 433,137 L 431,135 L 431,134 L 429,132 L 429,131 L 428,130 L 428,129 L 426,127 L 426,126 L 424,124 L 424,123 L 422,121 L 422,120 L 420,118 L 420,117 L 418,115 L 418,114 L 417,113 L 417,112 L 415,110 L 415,109 L 413,107 L 413,106 L 411,104 L 411,103 L 410,102 Z" fill="orangered" stroke="none" /></svg>